{
    "asset" : {
        "generator" : "Khronos glTF Blender I/O v1.8.19",
        "version" : "2.0"
    },
    "scene" : 0,
    "scenes" : [
        {
            "name" : "Scene",
            "nodes" : [
                0
            ]
        }
    ],
    "nodes" : [
        {
            "mesh" : 0,
            "name" : "KomodoMesh_Cube",
            "rotation" : [
                0.7071068286895752,
                0,
                0,
                0.7071067094802856
            ],
            "scale" : [
                1,
                0.7751492261886597,
                1
            ]
        }
    ],
    "materials" : [
        {
            "doubleSided" : true,
            "name" : "Material.001",
            "pbrMetallicRoughness" : {
                "baseColorTexture" : {
                    "index" : 0
                },
                "metallicFactor" : 0,
                "roughnessFactor" : 0.525658369064331
            }
        },
        {
            "doubleSided" : true,
            "name" : "Material.002",
            "pbrMetallicRoughness" : {
                "baseColorTexture" : {
                    "index" : 1
                },
                "metallicFactor" : 0,
                "roughnessFactor" : 0.525658369064331
            }
        }
    ],
    "meshes" : [
        {
            "name" : "KomodoMesh_Cube",
            "primitives" : [
                {
                    "attributes" : {
                        "POSITION" : 0,
                        "NORMAL" : 1,
                        "TEXCOORD_0" : 2
                    },
                    "indices" : 3,
                    "material" : 0
                },
                {
                    "attributes" : {
                        "POSITION" : 4,
                        "NORMAL" : 5,
                        "TEXCOORD_0" : 6
                    },
                    "indices" : 7,
                    "material" : 1
                }
            ]
        }
    ],
    "textures" : [
        {
            "sampler" : 0,
            "source" : 0
        },
        {
            "sampler" : 0,
            "source" : 1
        }
    ],
    "images" : [
        {
            "bufferView" : 4,
            "mimeType" : "image/png",
            "name" : "Material"
        },
        {
            "bufferView" : 9,
            "mimeType" : "image/png",
            "name" : "Material"
        }
    ],
    "accessors" : [
        {
            "bufferView" : 0,
            "componentType" : 5126,
            "count" : 6287,
            "max" : [
                0.4813770055770874,
                3.1577110290527344,
                0.0019890000112354755
            ],
            "min" : [
                -0.4813770055770874,
                -1.6246410608291626,
                -0.6606950163841248
            ],
            "type" : "VEC3"
        },
        {
            "bufferView" : 1,
            "componentType" : 5126,
            "count" : 6287,
            "type" : "VEC3"
        },
        {
            "bufferView" : 2,
            "componentType" : 5126,
            "count" : 6287,
            "type" : "VEC2"
        },
        {
            "bufferView" : 3,
            "componentType" : 5123,
            "count" : 29856,
            "type" : "SCALAR"
        },
        {
            "bufferView" : 5,
            "componentType" : 5126,
            "count" : 1826,
            "max" : [
                0.37358999252319336,
                3.1577110290527344,
                -0.07288900017738342
            ],
            "min" : [
                -0.40278300642967224,
                -1.5529245138168335,
                -0.4493318498134613
            ],
            "type" : "VEC3"
        },
        {
            "bufferView" : 6,
            "componentType" : 5126,
            "count" : 1826,
            "type" : "VEC3"
        },
        {
            "bufferView" : 7,
            "componentType" : 5126,
            "count" : 1826,
            "type" : "VEC2"
        },
        {
            "bufferView" : 8,
            "componentType" : 5123,
            "count" : 8832,
            "type" : "SCALAR"
        }
    ],
    "bufferViews" : [
        {
            "buffer" : 0,
            "byteLength" : 75444,
            "byteOffset" : 0
        },
        {
            "buffer" : 0,
            "byteLength" : 75444,
            "byteOffset" : 75444
        },
        {
            "buffer" : 0,
            "byteLength" : 50296,
            "byteOffset" : 150888
        },
        {
            "buffer" : 0,
            "byteLength" : 59712,
            "byteOffset" : 201184
        },
        {
            "buffer" : 0,
            "byteLength" : 100887,
            "byteOffset" : 260896
        },
        {
            "buffer" : 0,
            "byteLength" : 21912,
            "byteOffset" : 361784
        },
        {
            "buffer" : 0,
            "byteLength" : 21912,
            "byteOffset" : 383696
        },
        {
            "buffer" : 0,
            "byteLength" : 14608,
            "byteOffset" : 405608
        },
        {
            "buffer" : 0,
            "byteLength" : 17664,
            "byteOffset" : 420216
        },
        {
            "buffer" : 0,
            "byteLength" : 20568,
            "byteOffset" : 437880
        }
    ],
    "samplers" : [
        {
            "magFilter" : 9729,
            "minFilter" : 9987
        }
    ],
    "buffers" : [
        {
            "byteLength" : 458448,
            "uri" : "data:application/octet-stream;base64,"
        }
    ]
}
