{"accessors" : [{"bufferView" : 0, "byteOffset" : 0, "componentType" : 5123, "count" : 180, "type" : "SCALAR", "max" : [144], "min" : [0]}, {"bufferView" : 1, "byteOffset" : 0, "componentType" : 5126, "count" : 145, "type" : "VEC3", "max" : [1.2732008695602417, 2.618793249130249, 1], "min" : [-1.2732008695602417, -1.2732008695602417, -4.202605724334717], "name" : "POSITION"}, {"bufferView" : 1, "byteOffset" : 12, "componentType" : 5126, "count" : 145, "type" : "VEC3", "max" : [0.9076793789863586, 0.8043006062507629, 0.9842233061790466], "min" : [-0.9542760848999023, -0.8940668106079102, -0.7703738808631897], "name" : "NORMAL"}, {"bufferView" : 1, "byteOffset" : 24, "componentType" : 5126, "count" : 145, "type" : "VEC2", "max" : [0.875, 1], "min" : [0.125, 0], "name" : "TEXCOORD_0"}, {"bufferView" : 0, "byteOffset" : 360, "componentType" : 5123, "count" : 108, "type" : "SCALAR", "max" : [87], "min" : [0]}, {"bufferView" : 2, "byteOffset" : 0, "componentType" : 5126, "count" : 88, "type" : "VEC3", "max" : [0.1510370522737503, 2.127835750579834, -0.7213341593742371], "min" : [-0.567994236946106, 1.1786580085754395, -2.152303695678711], "name" : "POSITION"}, {"bufferView" : 2, "byteOffset" : 12, "componentType" : 5126, "count" : 88, "type" : "VEC3", "max" : [0.826406717300415, 0.9188690185546875, 0.9146370887756348], "min" : [-0.7208327651023865, -0.8044899702072144, -0.8158485293388367], "name" : "NORMAL"}, {"bufferView" : 2, "byteOffset" : 24, "componentType" : 5126, "count" : 88, "type" : "VEC2", "max" : [0.875, 1], "min" : [0.125, 0], "name" : "TEXCOORD_0"}, {"bufferView" : 0, "byteOffset" : 576, "componentType" : 5123, "count" : 300, "type" : "SCALAR", "max" : [242], "min" : [0]}, {"bufferView" : 3, "byteOffset" : 0, "componentType" : 5126, "count" : 243, "type" : "VEC3", "max" : [3.6335437297821045, 1.4347931146621704, 2.2419378757476807], "min" : [-0.22606618702411652, -0.8591556549072266, -1.567746639251709], "name" : "POSITION"}, {"bufferView" : 3, "byteOffset" : 12, "componentType" : 5126, "count" : 243, "type" : "VEC3", "max" : [0.910540759563446, 0.9351416230201721, 0.9726734757423401], "min" : [-0.9807431697845459, -0.989953339099884, -0.928373396396637], "name" : "NORMAL"}, {"bufferView" : 3, "byteOffset" : 24, "componentType" : 5126, "count" : 243, "type" : "VEC2", "max" : [0.875, 1], "min" : [0.125, 0], "name" : "TEXCOORD_0"}, {"bufferView" : 0, "byteOffset" : 1176, "componentType" : 5123, "count" : 912, "type" : "SCALAR", "max" : [751], "min" : [0]}, {"bufferView" : 4, "byteOffset" : 0, "componentType" : 5126, "count" : 752, "type" : "VEC3", "max" : [2.952730417251587, 0.5484252572059631, -1.1117630004882812], "min" : [0.39912480115890503, -0.4633089303970337, -4.088248252868652], "name" : "POSITION"}, {"bufferView" : 4, "byteOffset" : 12, "componentType" : 5126, "count" : 752, "type" : "VEC3", "max" : [0.8848308324813843, 0.8142995238304138, 0.8756164908409119], "min" : [-0.8664528131484985, -0.7696049809455872, -0.8952547907829285], "name" : "NORMAL"}, {"bufferView" : 4, "byteOffset" : 24, "componentType" : 5126, "count" : 752, "type" : "VEC2", "max" : [0.875, 1], "min" : [0.125, 0], "name" : "TEXCOORD_0"}, {"bufferView" : 0, "byteOffset" : 3000, "componentType" : 5123, "count" : 11520, "type" : "SCALAR", "max" : [9727], "min" : [0]}, {"bufferView" : 5, "byteOffset" : 0, "componentType" : 5126, "count" : 9728, "type" : "VEC3", "max" : [0.436353862285614, 0.9592399597167969, 0.5287006497383118], "min" : [0.13257670402526855, 0.4564964771270752, -0.12259989976882935], "name" : "POSITION"}, {"bufferView" : 5, "byteOffset" : 12, "componentType" : 5126, "count" : 9728, "type" : "VEC3", "max" : [1.0000044107437134, 1.0000044107437134, 1.0000044107437134], "min" : [-1.0000044107437134, -1.0000044107437134, -1.0000044107437134], "name" : "NORMAL"}, {"bufferView" : 5, "byteOffset" : 24, "componentType" : 5126, "count" : 9728, "type" : "VEC2", "max" : [1.0000001192092896, 1], "min" : [0, 0], "name" : "TEXCOORD_0"}], "asset" : {"generator" : "Aspose.3D 22.1", "version" : "2.0"}, "buffers" : [{"uri" : "data:application/octet-stream;base64,", "byteLength" : 442704}], "bufferViews" : [{"buffer" : 0, "byteOffset" : 0, "byteLength" : 26040, "target" : 34963}, {"buffer" : 0, "byteOffset" : 26044, "byteLength" : 5760, "byteStride" : 32, "target" : 34962}, {"buffer" : 0, "byteOffset" : 31808, "byteLength" : 3456, "byteStride" : 32, "target" : 34962}, {"buffer" : 0, "byteOffset" : 35268, "byteLength" : 9600, "byteStride" : 32, "target" : 34962}, {"buffer" : 0, "byteOffset" : 44872, "byteLength" : 29184, "byteStride" : 32, "target" : 34962}, {"buffer" : 0, "byteOffset" : 74060, "byteLength" : 368640, "byteStride" : 32, "target" : 34962}], "materials" : [{"name" : "body", "pbrMetallicRoughness" : {"baseColorFactor" : [0, 0, 0, 1], "metallicFactor" : 0, "roughnessFactor" : 0.33818182349205017}, "emissiveFactor" : [0, 0, 0], "alphaMode" : "OPAQUE", "doubleSided" : true}, {"name" : "stinger", "pbrMetallicRoughness" : {"baseColorFactor" : [0.017949553206562996, 0, 0.0008954991353675723, 1], "metallicFactor" : 0, "roughnessFactor" : 0.24909090995788574}, "emissiveFactor" : [0, 0, 0], "alphaMode" : "OPAQUE", "doubleSided" : true}, {"name" : "body", "pbrMetallicRoughness" : {"baseColorFactor" : [0, 0, 0, 1], "metallicFactor" : 0, "roughnessFactor" : 0.33818182349205017}, "emissiveFactor" : [0, 0, 0], "alphaMode" : "OPAQUE", "doubleSided" : true}, {"name" : "body", "pbrMetallicRoughness" : {"baseColorFactor" : [0, 0, 0, 1], "metallicFactor" : 0, "roughnessFactor" : 0.33818182349205017}, "emissiveFactor" : [0, 0, 0], "alphaMode" : "OPAQUE", "doubleSided" : true}, {"name" : "eyes", "pbrMetallicRoughness" : {"baseColorFactor" : [0, 0, 0, 1], "metallicFactor" : 0, "roughnessFactor" : 0}, "emissiveFactor" : [0, 0, 0], "alphaMode" : "OPAQUE", "doubleSided" : true}], "meshes" : [{"primitives" : [{"attributes" : {"POSITION" : 1, "NORMAL" : 2, "TEXCOORD_0" : 3}, "indices" : 0, "material" : 0, "mode" : 4}]}, {"primitives" : [{"attributes" : {"POSITION" : 5, "NORMAL" : 6, "TEXCOORD_0" : 7}, "indices" : 4, "material" : 1, "mode" : 4}]}, {"primitives" : [{"attributes" : {"POSITION" : 9, "NORMAL" : 10, "TEXCOORD_0" : 11}, "indices" : 8, "material" : 2, "mode" : 4}]}, {"primitives" : [{"attributes" : {"POSITION" : 13, "NORMAL" : 14, "TEXCOORD_0" : 15}, "indices" : 12, "material" : 3, "mode" : 4}]}, {"primitives" : [{"attributes" : {"POSITION" : 17, "NORMAL" : 18, "TEXCOORD_0" : 19}, "indices" : 16, "material" : 4, "mode" : 4}]}], "nodes" : [{"mesh" : 0, "name" : "Cube"}, {"mesh" : 1, "name" : "Cube.001"}, {"mesh" : 2, "name" : "Cube.002"}, {"mesh" : 3, "name" : "Cube.003"}, {"mesh" : 4, "name" : "Sphere"}], "scene" : 0, "scenes" : [{"nodes" : [0, 1, 2, 3, 4]}]}