{
    "asset" : {
        "generator" : "Khronos glTF Blender I/O v1.8.19",
        "version" : "2.0"
    },
    "scene" : 0,
    "scenes" : [
        {
            "name" : "Scene",
            "nodes" : [
                0
            ]
        }
    ],
    "nodes" : [
        {
            "mesh" : 0,
            "name" : "spider",
            "rotation" : [
                0.7071068286895752,
                0,
                0,
                0.7071067094802856
            ]
        }
    ],
    "materials" : [
        {
            "doubleSided" : true,
            "name" : "body_initialShadingGroup",
            "pbrMetallicRoughness" : {
                "baseColorTexture" : {
                    "index" : 0
                },
                "metallicFactor" : 0,
                "roughnessFactor" : 0.3559397757053375
            }
        },
        {
            "doubleSided" : true,
            "name" : "eyes_initialShadingGroup",
            "pbrMetallicRoughness" : {
                "baseColorFactor" : [
                    0,
                    0,
                    0,
                    1
                ],
                "metallicFactor" : 0,
                "roughnessFactor" : 0.051316700875759125
            }
        },
        {
            "doubleSided" : true,
            "name" : "leg1_initialShadingGroup",
            "pbrMetallicRoughness" : {
                "baseColorTexture" : {
                    "index" : 1
                },
                "metallicFactor" : 0,
                "roughnessFactor" : 0.43862318992614746
            }
        }
    ],
    "meshes" : [
        {
            "name" : "spider",
            "primitives" : [
                {
                    "attributes" : {
                        "POSITION" : 0,
                        "NORMAL" : 1,
                        "TEXCOORD_0" : 2
                    },
                    "indices" : 3,
                    "material" : 0
                },
                {
                    "attributes" : {
                        "POSITION" : 4,
                        "NORMAL" : 5,
                        "TEXCOORD_0" : 6
                    },
                    "indices" : 7,
                    "material" : 1
                },
                {
                    "attributes" : {
                        "POSITION" : 8,
                        "NORMAL" : 9,
                        "TEXCOORD_0" : 10
                    },
                    "indices" : 11,
                    "material" : 2
                }
            ]
        }
    ],
    "textures" : [
        {
            "sampler" : 0,
            "source" : 0
        },
        {
            "sampler" : 0,
            "source" : 1
        }
    ],
    "images" : [
        {
            "bufferView" : 4,
            "mimeType" : "image/png",
            "name" : "body_initialShadingGroup Base Color"
        },
        {
            "bufferView" : 13,
            "mimeType" : "image/png",
            "name" : "leg1_initialShadingGroup Base Color"
        }
    ],
    "accessors" : [
        {
            "bufferView" : 0,
            "componentType" : 5126,
            "count" : 666,
            "max" : [
                0.8761259913444519,
                1.5120940208435059,
                -1.167862057685852
            ],
            "min" : [
                -0.8761259913444519,
                -2.5994629859924316,
                -2.5147249698638916
            ],
            "type" : "VEC3"
        },
        {
            "bufferView" : 1,
            "componentType" : 5126,
            "count" : 666,
            "type" : "VEC3"
        },
        {
            "bufferView" : 2,
            "componentType" : 5126,
            "count" : 666,
            "type" : "VEC2"
        },
        {
            "bufferView" : 3,
            "componentType" : 5123,
            "count" : 3750,
            "type" : "SCALAR"
        },
        {
            "bufferView" : 5,
            "componentType" : 5126,
            "count" : 264,
            "max" : [
                0.2418680042028427,
                1.2617050409317017,
                -2.0974040031433105
            ],
            "min" : [
                -0.2418680042028427,
                0.9752190113067627,
                -2.370448112487793
            ],
            "type" : "VEC3"
        },
        {
            "bufferView" : 6,
            "componentType" : 5126,
            "count" : 264,
            "type" : "VEC3"
        },
        {
            "bufferView" : 7,
            "componentType" : 5126,
            "count" : 264,
            "type" : "VEC2"
        },
        {
            "bufferView" : 8,
            "componentType" : 5123,
            "count" : 1344,
            "type" : "SCALAR"
        },
        {
            "bufferView" : 9,
            "componentType" : 5126,
            "count" : 1656,
            "max" : [
                4.266182899475098,
                3.056791067123413,
                0.0073529998771846294
            ],
            "min" : [
                -4.266182899475098,
                -2.071566104888916,
                -2.2930409908294678
            ],
            "type" : "VEC3"
        },
        {
            "bufferView" : 10,
            "componentType" : 5126,
            "count" : 1656,
            "type" : "VEC3"
        },
        {
            "bufferView" : 11,
            "componentType" : 5126,
            "count" : 1656,
            "type" : "VEC2"
        },
        {
            "bufferView" : 12,
            "componentType" : 5123,
            "count" : 8472,
            "type" : "SCALAR"
        }
    ],
    "bufferViews" : [
        {
            "buffer" : 0,
            "byteLength" : 7992,
            "byteOffset" : 0
        },
        {
            "buffer" : 0,
            "byteLength" : 7992,
            "byteOffset" : 7992
        },
        {
            "buffer" : 0,
            "byteLength" : 5328,
            "byteOffset" : 15984
        },
        {
            "buffer" : 0,
            "byteLength" : 7500,
            "byteOffset" : 21312
        },
        {
            "buffer" : 0,
            "byteLength" : 45391,
            "byteOffset" : 28812
        },
        {
            "buffer" : 0,
            "byteLength" : 3168,
            "byteOffset" : 74204
        },
        {
            "buffer" : 0,
            "byteLength" : 3168,
            "byteOffset" : 77372
        },
        {
            "buffer" : 0,
            "byteLength" : 2112,
            "byteOffset" : 80540
        },
        {
            "buffer" : 0,
            "byteLength" : 2688,
            "byteOffset" : 82652
        },
        {
            "buffer" : 0,
            "byteLength" : 19872,
            "byteOffset" : 85340
        },
        {
            "buffer" : 0,
            "byteLength" : 19872,
            "byteOffset" : 105212
        },
        {
            "buffer" : 0,
            "byteLength" : 13248,
            "byteOffset" : 125084
        },
        {
            "buffer" : 0,
            "byteLength" : 16944,
            "byteOffset" : 138332
        },
        {
            "buffer" : 0,
            "byteLength" : 35640,
            "byteOffset" : 155276
        }
    ],
    "samplers" : [
        {
            "magFilter" : 9729,
            "minFilter" : 9987
        }
    ],
    "buffers" : [
        {
            "byteLength" : 190916,
            "uri" : "data:application/octet-stream;base64,"
        }
    ]
}
