{
    "asset" : {
        "generator" : "Khronos glTF Blender I/O v1.7.33",
        "version" : "2.0"
    },
    "scene" : 0,
    "scenes" : [
        {
            "name" : "Scene",
            "nodes" : [
                0,
                1,
                2,
                3,
                4,
                5,
                6,
                7
            ]
        }
    ],
    "nodes" : [
        {
            "mesh" : 0,
            "name" : "thorax"
        },
        {
            "mesh" : 1,
            "name" : "tail"
        },
        {
            "mesh" : 2,
            "name" : "head"
        },
        {
            "mesh" : 3,
            "name" : "neck"
        },
        {
            "mesh" : 4,
            "name" : "wings"
        },
        {
            "mesh" : 5,
            "name" : "eyes"
        },
        {
            "mesh" : 6,
            "name" : "front legs"
        },
        {
            "mesh" : 7,
            "name" : "back legs"
        }
    ],
    "materials" : [
        {
            "doubleSided" : true,
            "name" : "thoraxMat",
            "pbrMetallicRoughness" : {
                "baseColorFactor" : [
                    0,
                    0.004187039099633694,
                    0.04720744490623474,
                    1
                ],
                "metallicFactor" : 0.22545453906059265,
                "roughnessFactor" : 0.3563636541366577
            }
        },
        {
            "doubleSided" : true,
            "name" : "Material.006",
            "pbrMetallicRoughness" : {
                "baseColorFactor" : [
                    0.005925239995121956,
                    0.005925239995121956,
                    0.005925239995121956,
                    1
                ],
                "metallicFactor" : 0,
                "roughnessFactor" : 0.18807339668273926
            }
        },
        {
            "doubleSided" : true,
            "name" : "Material.001",
            "pbrMetallicRoughness" : {
                "baseColorFactor" : [
                    0,
                    0.00490585109218955,
                    0.016067946329712868,
                    1
                ],
                "metallicFactor" : 0,
                "roughnessFactor" : 0.209090918302536
            }
        },
        {
            "doubleSided" : true,
            "name" : "Material.003",
            "pbrMetallicRoughness" : {
                "baseColorFactor" : [
                    0.014996550977230072,
                    0.014996550977230072,
                    0.014996550977230072,
                    1
                ],
                "metallicFactor" : 0,
                "roughnessFactor" : 0.27090907096862793
            }
        },
        {
            "doubleSided" : true,
            "name" : "Material.005",
            "pbrMetallicRoughness" : {
                "baseColorFactor" : [
                    0.17877346277236938,
                    0.17877346277236938,
                    0.17877346277236938,
                    0.23853212594985962
                ],
                "metallicFactor" : 0,
                "roughnessFactor" : 0.16055044531822205
            }
        },
        {
            "doubleSided" : true,
            "name" : "Material.002",
            "pbrMetallicRoughness" : {
                "baseColorFactor" : [
                    0,
                    0,
                    0,
                    1
                ],
                "metallicFactor" : 0,
                "roughnessFactor" : 0.05636364221572876
            }
        },
        {
            "doubleSided" : true,
            "name" : "Material.004",
            "pbrMetallicRoughness" : {
                "baseColorFactor" : [
                    0,
                    0,
                    0,
                    1
                ],
                "metallicFactor" : 0,
                "roughnessFactor" : 0.16545453667640686
            }
        }
    ],
    "meshes" : [
        {
            "name" : "Cube",
            "primitives" : [
                {
                    "attributes" : {
                        "POSITION" : 0,
                        "NORMAL" : 1,
                        "TEXCOORD_0" : 2
                    },
                    "indices" : 3,
                    "material" : 0
                }
            ]
        },
        {
            "name" : "Cube.001",
            "primitives" : [
                {
                    "attributes" : {
                        "POSITION" : 4,
                        "NORMAL" : 5,
                        "TEXCOORD_0" : 6
                    },
                    "indices" : 7,
                    "material" : 1
                }
            ]
        },
        {
            "name" : "Cube.002",
            "primitives" : [
                {
                    "attributes" : {
                        "POSITION" : 8,
                        "NORMAL" : 9,
                        "TEXCOORD_0" : 10
                    },
                    "indices" : 7,
                    "material" : 2
                }
            ]
        },
        {
            "name" : "Cube.003",
            "primitives" : [
                {
                    "attributes" : {
                        "POSITION" : 11,
                        "NORMAL" : 12,
                        "TEXCOORD_0" : 13
                    },
                    "indices" : 7,
                    "material" : 3
                }
            ]
        },
        {
            "name" : "Cube.004",
            "primitives" : [
                {
                    "attributes" : {
                        "POSITION" : 14,
                        "NORMAL" : 15,
                        "TEXCOORD_0" : 16
                    },
                    "indices" : 17,
                    "material" : 4
                }
            ]
        },
        {
            "name" : "Cube.005",
            "primitives" : [
                {
                    "attributes" : {
                        "POSITION" : 18,
                        "NORMAL" : 19,
                        "TEXCOORD_0" : 20
                    },
                    "indices" : 21,
                    "material" : 5
                }
            ]
        },
        {
            "name" : "Cube.006",
            "primitives" : [
                {
                    "attributes" : {
                        "POSITION" : 22,
                        "NORMAL" : 23,
                        "TEXCOORD_0" : 24
                    },
                    "indices" : 25,
                    "material" : 6
                }
            ]
        },
        {
            "name" : "Cube.007",
            "primitives" : [
                {
                    "attributes" : {
                        "POSITION" : 26,
                        "NORMAL" : 27,
                        "TEXCOORD_0" : 28
                    },
                    "indices" : 29,
                    "material" : 6
                }
            ]
        }
    ],
    "accessors" : [
        {
            "bufferView" : 0,
            "componentType" : 5126,
            "count" : 736,
            "max" : [
                0.8763988614082336,
                0.9160453677177429,
                0.75798499584198
            ],
            "min" : [
                -0.8779628872871399,
                -0.7472360134124756,
                -1.8959118127822876
            ],
            "type" : "VEC3"
        },
        {
            "bufferView" : 1,
            "componentType" : 5126,
            "count" : 736,
            "type" : "VEC3"
        },
        {
            "bufferView" : 2,
            "componentType" : 5126,
            "count" : 736,
            "type" : "VEC2"
        },
        {
            "bufferView" : 3,
            "componentType" : 5123,
            "count" : 3840,
            "type" : "SCALAR"
        },
        {
            "bufferView" : 4,
            "componentType" : 5126,
            "count" : 441,
            "max" : [
                0.46800535917282104,
                0.3817356824874878,
                -0.10160032659769058
            ],
            "min" : [
                -0.37077802419662476,
                -0.5258108973503113,
                -11.401178359985352
            ],
            "type" : "VEC3"
        },
        {
            "bufferView" : 5,
            "componentType" : 5126,
            "count" : 441,
            "type" : "VEC3"
        },
        {
            "bufferView" : 6,
            "componentType" : 5126,
            "count" : 441,
            "type" : "VEC2"
        },
        {
            "bufferView" : 7,
            "componentType" : 5123,
            "count" : 2304,
            "type" : "SCALAR"
        },
        {
            "bufferView" : 8,
            "componentType" : 5126,
            "count" : 441,
            "max" : [
                0.769093930721283,
                1.1919831037521362,
                1.9394416809082031
            ],
            "min" : [
                -0.7680239081382751,
                -0.3320542573928833,
                0.7544793486595154
            ],
            "type" : "VEC3"
        },
        {
            "bufferView" : 9,
            "componentType" : 5126,
            "count" : 441,
            "type" : "VEC3"
        },
        {
            "bufferView" : 10,
            "componentType" : 5126,
            "count" : 441,
            "type" : "VEC2"
        },
        {
            "bufferView" : 11,
            "componentType" : 5126,
            "count" : 441,
            "max" : [
                0.0745411068201065,
                0.7337474822998047,
                0.9560497999191284
            ],
            "min" : [
                -0.10926080495119095,
                0.48121076822280884,
                0.507821798324585
            ],
            "type" : "VEC3"
        },
        {
            "bufferView" : 12,
            "componentType" : 5126,
            "count" : 441,
            "type" : "VEC3"
        },
        {
            "bufferView" : 13,
            "componentType" : 5126,
            "count" : 441,
            "type" : "VEC2"
        },
        {
            "bufferView" : 14,
            "componentType" : 5126,
            "count" : 10240,
            "max" : [
                3.260319948196411,
                4.084138870239258,
                -0.38476595282554626
            ],
            "min" : [
                -3.260319948196411,
                0.2591296136379242,
                -5.662718772888184
            ],
            "type" : "VEC3"
        },
        {
            "bufferView" : 15,
            "componentType" : 5126,
            "count" : 10240,
            "type" : "VEC3"
        },
        {
            "bufferView" : 16,
            "componentType" : 5126,
            "count" : 10240,
            "type" : "VEC2"
        },
        {
            "bufferView" : 17,
            "componentType" : 5123,
            "count" : 15360,
            "type" : "SCALAR"
        },
        {
            "bufferView" : 18,
            "componentType" : 5126,
            "count" : 882,
            "max" : [
                1.112491250038147,
                1.1209145784378052,
                1.7623838186264038
            ],
            "min" : [
                -1.112491250038147,
                0.06587842106819153,
                0.8595983982086182
            ],
            "type" : "VEC3"
        },
        {
            "bufferView" : 19,
            "componentType" : 5126,
            "count" : 882,
            "type" : "VEC3"
        },
        {
            "bufferView" : 20,
            "componentType" : 5126,
            "count" : 882,
            "type" : "VEC2"
        },
        {
            "bufferView" : 21,
            "componentType" : 5123,
            "count" : 4608,
            "type" : "SCALAR"
        },
        {
            "bufferView" : 22,
            "componentType" : 5126,
            "count" : 3618,
            "max" : [
                1.5296730995178223,
                0.3434056341648102,
                2.325528860092163
            ],
            "min" : [
                -1.5296730995178223,
                -1.3023409843444824,
                0.47805869579315186
            ],
            "type" : "VEC3"
        },
        {
            "bufferView" : 23,
            "componentType" : 5126,
            "count" : 3618,
            "type" : "VEC3"
        },
        {
            "bufferView" : 24,
            "componentType" : 5126,
            "count" : 3618,
            "type" : "VEC2"
        },
        {
            "bufferView" : 25,
            "componentType" : 5123,
            "count" : 19968,
            "type" : "SCALAR"
        },
        {
            "bufferView" : 26,
            "componentType" : 5126,
            "count" : 16228,
            "max" : [
                1.9195536375045776,
                0.24277377128601074,
                0.9400643706321716
            ],
            "min" : [
                -1.9195536375045776,
                -1.8796968460083008,
                -0.405790776014328
            ],
            "type" : "VEC3"
        },
        {
            "bufferView" : 27,
            "componentType" : 5126,
            "count" : 16228,
            "type" : "VEC3"
        },
        {
            "bufferView" : 28,
            "componentType" : 5126,
            "count" : 16228,
            "type" : "VEC2"
        },
        {
            "bufferView" : 29,
            "componentType" : 5123,
            "count" : 89088,
            "type" : "SCALAR"
        }
    ],
    "bufferViews" : [
        {
            "buffer" : 0,
            "byteLength" : 8832,
            "byteOffset" : 0
        },
        {
            "buffer" : 0,
            "byteLength" : 8832,
            "byteOffset" : 8832
        },
        {
            "buffer" : 0,
            "byteLength" : 5888,
            "byteOffset" : 17664
        },
        {
            "buffer" : 0,
            "byteLength" : 7680,
            "byteOffset" : 23552
        },
        {
            "buffer" : 0,
            "byteLength" : 5292,
            "byteOffset" : 31232
        },
        {
            "buffer" : 0,
            "byteLength" : 5292,
            "byteOffset" : 36524
        },
        {
            "buffer" : 0,
            "byteLength" : 3528,
            "byteOffset" : 41816
        },
        {
            "buffer" : 0,
            "byteLength" : 4608,
            "byteOffset" : 45344
        },
        {
            "buffer" : 0,
            "byteLength" : 5292,
            "byteOffset" : 49952
        },
        {
            "buffer" : 0,
            "byteLength" : 5292,
            "byteOffset" : 55244
        },
        {
            "buffer" : 0,
            "byteLength" : 3528,
            "byteOffset" : 60536
        },
        {
            "buffer" : 0,
            "byteLength" : 5292,
            "byteOffset" : 64064
        },
        {
            "buffer" : 0,
            "byteLength" : 5292,
            "byteOffset" : 69356
        },
        {
            "buffer" : 0,
            "byteLength" : 3528,
            "byteOffset" : 74648
        },
        {
            "buffer" : 0,
            "byteLength" : 122880,
            "byteOffset" : 78176
        },
        {
            "buffer" : 0,
            "byteLength" : 122880,
            "byteOffset" : 201056
        },
        {
            "buffer" : 0,
            "byteLength" : 81920,
            "byteOffset" : 323936
        },
        {
            "buffer" : 0,
            "byteLength" : 30720,
            "byteOffset" : 405856
        },
        {
            "buffer" : 0,
            "byteLength" : 10584,
            "byteOffset" : 436576
        },
        {
            "buffer" : 0,
            "byteLength" : 10584,
            "byteOffset" : 447160
        },
        {
            "buffer" : 0,
            "byteLength" : 7056,
            "byteOffset" : 457744
        },
        {
            "buffer" : 0,
            "byteLength" : 9216,
            "byteOffset" : 464800
        },
        {
            "buffer" : 0,
            "byteLength" : 43416,
            "byteOffset" : 474016
        },
        {
            "buffer" : 0,
            "byteLength" : 43416,
            "byteOffset" : 517432
        },
        {
            "buffer" : 0,
            "byteLength" : 28944,
            "byteOffset" : 560848
        },
        {
            "buffer" : 0,
            "byteLength" : 39936,
            "byteOffset" : 589792
        },
        {
            "buffer" : 0,
            "byteLength" : 194736,
            "byteOffset" : 629728
        },
        {
            "buffer" : 0,
            "byteLength" : 194736,
            "byteOffset" : 824464
        },
        {
            "buffer" : 0,
            "byteLength" : 129824,
            "byteOffset" : 1019200
        },
        {
            "buffer" : 0,
            "byteLength" : 178176,
            "byteOffset" : 1149024
        }
    ],
    "buffers" : [
        {
            "byteLength" : 1327200,
            "uri" : "data:application/octet-stream;base64,"
        }
    ]
}
