{"accessors" : [{"bufferView" : 0, "byteOffset" : 0, "componentType" : 5123, "count" : 60, "type" : "SCALAR", "max" : [45], "min" : [0]}, {"bufferView" : 1, "byteOffset" : 0, "componentType" : 5126, "count" : 46, "type" : "VEC3", "max" : [1, 1, 0.9113661050796509], "min" : [-1, -1, -2.207637310028076], "name" : "POSITION"}, {"bufferView" : 1, "byteOffset" : 12, "componentType" : 5126, "count" : 46, "type" : "VEC3", "max" : [0.7256094217300415, 0.6778139472007751, 0.7785053253173828], "min" : [-0.7249975204467773, -0.7617111802101135, -0.6715486645698547], "name" : "NORMAL"}, {"bufferView" : 1, "byteOffset" : 24, "componentType" : 5126, "count" : 46, "type" : "VEC2", "max" : [0.875, 1], "min" : [0.125, 0], "name" : "TEXCOORD_0"}, {"bufferView" : 0, "byteOffset" : 120, "componentType" : 5123, "count" : 36, "type" : "SCALAR", "max" : [29], "min" : [0]}, {"bufferView" : 2, "byteOffset" : 0, "componentType" : 5126, "count" : 30, "type" : "VEC3", "max" : [0.5481831431388855, 0.4684864580631256, 0.978506326675415], "min" : [-0.4509558081626892, -0.6125617027282715, -12.481284141540527], "name" : "POSITION"}, {"bufferView" : 2, "byteOffset" : 12, "componentType" : 5126, "count" : 30, "type" : "VEC3", "max" : [0.57735276222229, 0.57735276222229, 0.57735276222229], "min" : [-0.57735276222229, -0.57735276222229, -0.57735276222229], "name" : "NORMAL"}, {"bufferView" : 2, "byteOffset" : 24, "componentType" : 5126, "count" : 30, "type" : "VEC2", "max" : [0.875, 1], "min" : [0.125, 0], "name" : "TEXCOORD_0"}, {"bufferView" : 0, "byteOffset" : 192, "componentType" : 5123, "count" : 36, "type" : "SCALAR", "max" : [29], "min" : [0]}, {"bufferView" : 3, "byteOffset" : 0, "componentType" : 5126, "count" : 30, "type" : "VEC3", "max" : [1.3313236236572266, 1.755784511566162, 2.064020872116089], "min" : [-1.3250333070755005, -0.514452338218689, 0.08206690102815628], "name" : "POSITION"}, {"bufferView" : 3, "byteOffset" : 12, "componentType" : 5126, "count" : 30, "type" : "VEC3", "max" : [0.6741713881492615, 0.673603892326355, 0.7994199395179749], "min" : [-0.6717876195907593, -0.8986192345619202, -0.7723179459571838], "name" : "NORMAL"}, {"bufferView" : 3, "byteOffset" : 24, "componentType" : 5126, "count" : 30, "type" : "VEC2", "max" : [0.875, 1], "min" : [0.125, 0], "name" : "TEXCOORD_0"}, {"bufferView" : 0, "byteOffset" : 264, "componentType" : 5123, "count" : 36, "type" : "SCALAR", "max" : [29], "min" : [0]}, {"bufferView" : 4, "byteOffset" : 0, "componentType" : 5126, "count" : 30, "type" : "VEC3", "max" : [0.09830033034086227, 0.8154946565628052, 1.0381454229354858], "min" : [-0.13302002847194672, 0.3994634747505188, 0.42572593688964844], "name" : "POSITION"}, {"bufferView" : 4, "byteOffset" : 12, "componentType" : 5126, "count" : 30, "type" : "VEC3", "max" : [0.589858889579773, 0.7534347176551819, 0.7605105638504028], "min" : [-0.589858889579773, -0.7534347176551819, -0.7605105638504028], "name" : "NORMAL"}, {"bufferView" : 4, "byteOffset" : 24, "componentType" : 5126, "count" : 30, "type" : "VEC2", "max" : [0.875, 1], "min" : [0.125, 0], "name" : "TEXCOORD_0"}, {"bufferView" : 0, "byteOffset" : 336, "componentType" : 5123, "count" : 120, "type" : "SCALAR", "max" : [99], "min" : [0]}, {"bufferView" : 5, "byteOffset" : 0, "componentType" : 5126, "count" : 100, "type" : "VEC3", "max" : [4.0435309410095215, 4.978982925415039, -0.20632565021514893], "min" : [0.2863948345184326, 0.13090303540229797, -6.098680019378662], "name" : "POSITION"}, {"bufferView" : 5, "byteOffset" : 12, "componentType" : 5126, "count" : 100, "type" : "VEC3", "max" : [0.7198454737663269, 0.7897302508354187, 0.8000545501708984], "min" : [-0.7311211228370667, -0.9276247620582581, -0.8000485897064209], "name" : "NORMAL"}, {"bufferView" : 5, "byteOffset" : 24, "componentType" : 5126, "count" : 100, "type" : "VEC2", "max" : [0.875, 1], "min" : [0.125, 0], "name" : "TEXCOORD_0"}, {"bufferView" : 0, "byteOffset" : 576, "componentType" : 5123, "count" : 36, "type" : "SCALAR", "max" : [29], "min" : [0]}, {"bufferView" : 6, "byteOffset" : 0, "componentType" : 5126, "count" : 30, "type" : "VEC3", "max" : [1.2039839029312134, 1.4128358364105225, 2.0581085681915283], "min" : [0.2378484010696411, -0.22604304552078247, 0.563873291015625], "name" : "POSITION"}, {"bufferView" : 6, "byteOffset" : 12, "componentType" : 5126, "count" : 30, "type" : "VEC3", "max" : [0.5920996069908142, 0.8011993169784546, 0.7988157272338867], "min" : [-0.5920996069908142, -0.8011993169784546, -0.7988157272338867], "name" : "NORMAL"}, {"bufferView" : 6, "byteOffset" : 24, "componentType" : 5126, "count" : 30, "type" : "VEC2", "max" : [0.875, 1], "min" : [0.125, 0], "name" : "TEXCOORD_0"}, {"bufferView" : 0, "byteOffset" : 648, "componentType" : 5123, "count" : 156, "type" : "SCALAR", "max" : [127], "min" : [0]}, {"bufferView" : 7, "byteOffset" : 0, "componentType" : 5126, "count" : 128, "type" : "VEC3", "max" : [1.5623258352279663, 0.42988118529319763, 2.354886293411255], "min" : [-0.09549808502197266, -1.3334641456604004, 0.421823114156723], "name" : "POSITION"}, {"bufferView" : 7, "byteOffset" : 12, "componentType" : 5126, "count" : 128, "type" : "VEC3", "max" : [0.8335069417953491, 0.9372724890708923, 0.945533812046051], "min" : [-0.9448813199996948, -0.9570351243019104, -0.9331914186477661], "name" : "NORMAL"}, {"bufferView" : 7, "byteOffset" : 24, "componentType" : 5126, "count" : 128, "type" : "VEC2", "max" : [0.875, 1], "min" : [0.125, 0], "name" : "TEXCOORD_0"}, {"bufferView" : 0, "byteOffset" : 960, "componentType" : 5123, "count" : 696, "type" : "SCALAR", "max" : [575], "min" : [0]}, {"bufferView" : 8, "byteOffset" : 0, "componentType" : 5126, "count" : 576, "type" : "VEC3", "max" : [1.932479977607727, 0.2829335033893585, 0.955979585647583], "min" : [0.3085710108280182, -1.8983514308929443, -0.4323188066482544], "name" : "POSITION"}, {"bufferView" : 8, "byteOffset" : 12, "componentType" : 5126, "count" : 576, "type" : "VEC3", "max" : [0.7942625880241394, 0.9164098501205444, 0.8491077423095703], "min" : [-0.9118844866752625, -0.8990302085876465, -0.8207510709762573], "name" : "NORMAL"}, {"bufferView" : 8, "byteOffset" : 24, "componentType" : 5126, "count" : 576, "type" : "VEC2", "max" : [0.875, 1], "min" : [0.125, 0], "name" : "TEXCOORD_0"}], "asset" : {"generator" : "Aspose.3D 22.1", "version" : "2.0"}, "buffers" : [{"uri" : "data:application/octet-stream;base64,", "byteLength" : 40020}], "bufferViews" : [{"buffer" : 0, "byteOffset" : 0, "byteLength" : 2352, "target" : 34963}, {"buffer" : 0, "byteOffset" : 2356, "byteLength" : 1920, "byteStride" : 32, "target" : 34962}, {"buffer" : 0, "byteOffset" : 4280, "byteLength" : 1152, "byteStride" : 32, "target" : 34962}, {"buffer" : 0, "byteOffset" : 5436, "byteLength" : 1152, "byteStride" : 32, "target" : 34962}, {"buffer" : 0, "byteOffset" : 6592, "byteLength" : 1152, "byteStride" : 32, "target" : 34962}, {"buffer" : 0, "byteOffset" : 7748, "byteLength" : 3840, "byteStride" : 32, "target" : 34962}, {"buffer" : 0, "byteOffset" : 11592, "byteLength" : 1152, "byteStride" : 32, "target" : 34962}, {"buffer" : 0, "byteOffset" : 12748, "byteLength" : 4992, "byteStride" : 32, "target" : 34962}, {"buffer" : 0, "byteOffset" : 17744, "byteLength" : 22272, "byteStride" : 32, "target" : 34962}], "materials" : [{"name" : "thoraxMat", "pbrMetallicRoughness" : {"baseColorFactor" : [0, 0.004187039099633694, 0.04720744490623474, 1], "metallicFactor" : 0.22545453906059265, "roughnessFactor" : 0.3563636541366577}, "emissiveFactor" : [0, 0, 0], "alphaMode" : "OPAQUE", "doubleSided" : true}, {"name" : "Material.006", "pbrMetallicRoughness" : {"baseColorFactor" : [0.005925239995121956, 0.005925239995121956, 0.005925239995121956, 1], "metallicFactor" : 0, "roughnessFactor" : 0.18807339668273926}, "emissiveFactor" : [0, 0, 0], "alphaMode" : "OPAQUE", "doubleSided" : true}, {"name" : "Material.001", "pbrMetallicRoughness" : {"baseColorFactor" : [0, 0.00490585109218955, 0.016067946329712868, 1], "metallicFactor" : 0, "roughnessFactor" : 0.209090918302536}, "emissiveFactor" : [0, 0, 0], "alphaMode" : "OPAQUE", "doubleSided" : true}, {"name" : "Material.003", "pbrMetallicRoughness" : {"baseColorFactor" : [0.014996550977230072, 0.014996550977230072, 0.014996550977230072, 1], "metallicFactor" : 0, "roughnessFactor" : 0.27090907096862793}, "emissiveFactor" : [0, 0, 0], "alphaMode" : "OPAQUE", "doubleSided" : true}, {"name" : "Material.005", "pbrMetallicRoughness" : {"baseColorFactor" : [0.17877346277236938, 0.17877346277236938, 0.17877346277236938, 1], "metallicFactor" : 0, "roughnessFactor" : 0.16055044531822205}, "emissiveFactor" : [0, 0, 0], "alphaMode" : "OPAQUE", "doubleSided" : true}, {"name" : "Material.002", "pbrMetallicRoughness" : {"baseColorFactor" : [0, 0, 0, 1], "metallicFactor" : 0, "roughnessFactor" : 0.05636364221572876}, "emissiveFactor" : [0, 0, 0], "alphaMode" : "OPAQUE", "doubleSided" : true}, {"name" : "Material.004", "pbrMetallicRoughness" : {"baseColorFactor" : [0, 0, 0, 1], "metallicFactor" : 0, "roughnessFactor" : 0.16545453667640686}, "emissiveFactor" : [0, 0, 0], "alphaMode" : "OPAQUE", "doubleSided" : true}, {"name" : "Material.004", "pbrMetallicRoughness" : {"baseColorFactor" : [0, 0, 0, 1], "metallicFactor" : 0, "roughnessFactor" : 0.16545453667640686}, "emissiveFactor" : [0, 0, 0], "alphaMode" : "OPAQUE", "doubleSided" : true}], "meshes" : [{"primitives" : [{"attributes" : {"POSITION" : 1, "NORMAL" : 2, "TEXCOORD_0" : 3}, "indices" : 0, "material" : 0, "mode" : 4}]}, {"primitives" : [{"attributes" : {"POSITION" : 5, "NORMAL" : 6, "TEXCOORD_0" : 7}, "indices" : 4, "material" : 1, "mode" : 4}]}, {"primitives" : [{"attributes" : {"POSITION" : 9, "NORMAL" : 10, "TEXCOORD_0" : 11}, "indices" : 8, "material" : 2, "mode" : 4}]}, {"primitives" : [{"attributes" : {"POSITION" : 13, "NORMAL" : 14, "TEXCOORD_0" : 15}, "indices" : 12, "material" : 3, "mode" : 4}]}, {"primitives" : [{"attributes" : {"POSITION" : 17, "NORMAL" : 18, "TEXCOORD_0" : 19}, "indices" : 16, "material" : 4, "mode" : 4}]}, {"primitives" : [{"attributes" : {"POSITION" : 21, "NORMAL" : 22, "TEXCOORD_0" : 23}, "indices" : 20, "material" : 5, "mode" : 4}]}, {"primitives" : [{"attributes" : {"POSITION" : 25, "NORMAL" : 26, "TEXCOORD_0" : 27}, "indices" : 24, "material" : 6, "mode" : 4}]}, {"primitives" : [{"attributes" : {"POSITION" : 29, "NORMAL" : 30, "TEXCOORD_0" : 31}, "indices" : 28, "material" : 7, "mode" : 4}]}], "nodes" : [{"mesh" : 0, "name" : "thorax"}, {"mesh" : 1, "name" : "tail"}, {"mesh" : 2, "name" : "head"}, {"mesh" : 3, "name" : "neck"}, {"mesh" : 4, "name" : "wings"}, {"mesh" : 5, "name" : "eyes"}, {"mesh" : 6, "name" : "front legs"}, {"mesh" : 7, "name" : "back legs"}], "scene" : 0, "scenes" : [{"nodes" : [0, 1, 2, 3, 4, 5, 6, 7]}]}