{
    "asset" : {
        "generator" : "Khronos glTF Blender I/O v1.7.33",
        "version" : "2.0"
    },
    "scene" : 0,
    "scenes" : [
        {
            "name" : "Scene",
            "nodes" : [
                0
            ]
        }
    ],
    "nodes" : [
        {
            "mesh" : 0,
            "name" : "spider",
            "rotation" : [
                0.7071068286895752,
                0,
                0,
                0.7071067094802856
            ],
            "scale" : [
                0.07137453556060791,
                0.07137453556060791,
                0.07137453556060791
            ]
        }
    ],
    "materials" : [
        {
            "doubleSided" : true,
            "name" : "body_initialShadingGroup",
            "pbrMetallicRoughness" : {
                "baseColorFactor" : [
                    0,
                    0,
                    0,
                    1
                ],
                "metallicFactor" : 0,
                "roughnessFactor" : 0.3211009204387665
            }
        },
        {
            "doubleSided" : true,
            "name" : "eyes_initialShadingGroup",
            "pbrMetallicRoughness" : {
                "baseColorFactor" : [
                    0,
                    0,
                    0,
                    1
                ],
                "metallicFactor" : 0,
                "roughnessFactor" : 0
            }
        },
        {
            "doubleSided" : true,
            "name" : "leg1_initialShadingGroup",
            "pbrMetallicRoughness" : {
                "baseColorFactor" : [
                    0,
                    0,
                    0,
                    1
                ],
                "metallicFactor" : 0,
                "roughnessFactor" : 0.4082568883895874
            }
        }
    ],
    "meshes" : [
        {
            "name" : "spider",
            "primitives" : [
                {
                    "attributes" : {
                        "POSITION" : 0,
                        "NORMAL" : 1,
                        "TEXCOORD_0" : 2
                    },
                    "indices" : 3,
                    "material" : 0
                },
                {
                    "attributes" : {
                        "POSITION" : 4,
                        "NORMAL" : 5,
                        "TEXCOORD_0" : 6
                    },
                    "indices" : 7,
                    "material" : 1
                },
                {
                    "attributes" : {
                        "POSITION" : 8,
                        "NORMAL" : 9,
                        "TEXCOORD_0" : 10
                    },
                    "indices" : 11,
                    "material" : 2
                }
            ]
        }
    ],
    "accessors" : [
        {
            "bufferView" : 0,
            "componentType" : 5126,
            "count" : 666,
            "max" : [
                12.275046348571777,
                21.18534278869629,
                -16.362438201904297
            ],
            "min" : [
                -12.275046348571777,
                -36.42002868652344,
                -35.2327995300293
            ],
            "type" : "VEC3"
        },
        {
            "bufferView" : 1,
            "componentType" : 5126,
            "count" : 666,
            "type" : "VEC3"
        },
        {
            "bufferView" : 2,
            "componentType" : 5126,
            "count" : 666,
            "type" : "VEC2"
        },
        {
            "bufferView" : 3,
            "componentType" : 5123,
            "count" : 3750,
            "type" : "SCALAR"
        },
        {
            "bufferView" : 4,
            "componentType" : 5126,
            "count" : 264,
            "max" : [
                3.388719081878662,
                17.677236557006836,
                -29.385894775390625
            ],
            "min" : [
                -3.388719081878662,
                13.663397789001465,
                -33.211395263671875
            ],
            "type" : "VEC3"
        },
        {
            "bufferView" : 5,
            "componentType" : 5126,
            "count" : 264,
            "type" : "VEC3"
        },
        {
            "bufferView" : 6,
            "componentType" : 5126,
            "count" : 264,
            "type" : "VEC2"
        },
        {
            "bufferView" : 7,
            "componentType" : 5123,
            "count" : 1344,
            "type" : "SCALAR"
        },
        {
            "bufferView" : 8,
            "componentType" : 5126,
            "count" : 1656,
            "max" : [
                59.77177810668945,
                42.827476501464844,
                0.10301800072193146
            ],
            "min" : [
                -59.77178192138672,
                -29.023881912231445,
                -32.12688064575195
            ],
            "type" : "VEC3"
        },
        {
            "bufferView" : 9,
            "componentType" : 5126,
            "count" : 1656,
            "type" : "VEC3"
        },
        {
            "bufferView" : 10,
            "componentType" : 5126,
            "count" : 1656,
            "type" : "VEC2"
        },
        {
            "bufferView" : 11,
            "componentType" : 5123,
            "count" : 8472,
            "type" : "SCALAR"
        }
    ],
    "bufferViews" : [
        {
            "buffer" : 0,
            "byteLength" : 7992,
            "byteOffset" : 0
        },
        {
            "buffer" : 0,
            "byteLength" : 7992,
            "byteOffset" : 7992
        },
        {
            "buffer" : 0,
            "byteLength" : 5328,
            "byteOffset" : 15984
        },
        {
            "buffer" : 0,
            "byteLength" : 7500,
            "byteOffset" : 21312
        },
        {
            "buffer" : 0,
            "byteLength" : 3168,
            "byteOffset" : 28812
        },
        {
            "buffer" : 0,
            "byteLength" : 3168,
            "byteOffset" : 31980
        },
        {
            "buffer" : 0,
            "byteLength" : 2112,
            "byteOffset" : 35148
        },
        {
            "buffer" : 0,
            "byteLength" : 2688,
            "byteOffset" : 37260
        },
        {
            "buffer" : 0,
            "byteLength" : 19872,
            "byteOffset" : 39948
        },
        {
            "buffer" : 0,
            "byteLength" : 19872,
            "byteOffset" : 59820
        },
        {
            "buffer" : 0,
            "byteLength" : 13248,
            "byteOffset" : 79692
        },
        {
            "buffer" : 0,
            "byteLength" : 16944,
            "byteOffset" : 92940
        }
    ],
    "buffers" : [
        {
            "byteLength" : 109884,
            "uri" : "data:application/octet-stream;base64,"
        }
    ]
}
