{
    "asset" : {
        "generator" : "Khronos glTF Blender I/O v1.7.33",
        "version" : "2.0"
    },
    "scene" : 0,
    "scenes" : [
        {
            "name" : "Scene",
            "nodes" : [
                25
            ]
        }
    ],
    "nodes" : [
        {
            "mesh" : 0,
            "name" : "KomodoMesh",
            "rotation" : [
                0,
                -0.7071068286895752,
                0.7071068286895752,
                5.338509012631221e-08
            ],
            "translation" : [
                0,
                0.32221072912216187,
                0.5244178771972656
            ]
        },
        {
            "name" : "Tail4",
            "rotation" : [
                0.004126896150410175,
                -0.0033845852594822645,
                -0.004930676892399788,
                0.9999735951423645
            ],
            "scale" : [
                1.0000001192092896,
                0.9999998211860657,
                1
            ],
            "translation" : [
                -1.4551602145473908e-09,
                0.815079927444458,
                -1.2475154242963526e-08
            ]
        },
        {
            "children" : [
                1
            ],
            "name" : "Tail3",
            "rotation" : [
                -0.005966036580502987,
                0.0045972527004778385,
                0.0055798753164708614,
                0.9999560713768005
            ],
            "scale" : [
                0.9999998807907104,
                0.9999997615814209,
                0.9999997615814209
            ],
            "translation" : [
                4.65713079211838e-10,
                0.8178073763847351,
                3.226016676016741e-10
            ]
        },
        {
            "children" : [
                2
            ],
            "name" : "Tail2",
            "rotation" : [
                0.005588809959590435,
                -0.0003089613455813378,
                -0.0031562515068799257,
                0.9999793767929077
            ],
            "scale" : [
                1,
                1.000000238418579,
                1.0000001192092896
            ],
            "translation" : [
                -1.1640351182951036e-10,
                0.6413111090660095,
                1.8056736550420283e-08
            ]
        },
        {
            "children" : [
                3
            ],
            "name" : "Tail1",
            "rotation" : [
                -0.07660704851150513,
                -0.003242313861846924,
                0.0010844037169590592,
                0.9970555305480957
            ],
            "scale" : [
                1,
                0.9999999403953552,
                0.9999999403953552
            ],
            "translation" : [
                6.125190310513062e-08,
                0.6642354726791382,
                -6.513557471166109e-10
            ]
        },
        {
            "name" : "Foot_R",
            "rotation" : [
                -0.6238542199134827,
                0.01927323080599308,
                -0.08454160392284393,
                0.7767156362533569
            ],
            "scale" : [
                1.0000001192092896,
                1,
                1
            ],
            "translation" : [
                -3.0218927804526174e-08,
                0.2841039299964905,
                -1.6878923148055947e-08
            ]
        },
        {
            "children" : [
                5
            ],
            "name" : "Thigh_R",
            "rotation" : [
                -0.6054378151893616,
                0.6259732842445374,
                -0.4398859143257141,
                0.21932388842105865
            ],
            "scale" : [
                0.9999999403953552,
                1,
                1
            ],
            "translation" : [
                2.179629143839179e-09,
                0.38793259859085083,
                1.458227849582272e-08
            ]
        },
        {
            "children" : [
                6
            ],
            "name" : "Hip_R",
            "rotation" : [
                0.3348378539085388,
                -0.32565048336982727,
                0.7378964424133301,
                0.4871799349784851
            ],
            "scale" : [
                1,
                1.0000001192092896,
                1
            ],
            "translation" : [
                5.676547942812249e-08,
                0.6642354130744934,
                1.0689892526727363e-08
            ]
        },
        {
            "name" : "Foot_L",
            "rotation" : [
                -0.6238542199134827,
                -0.019273193553090096,
                0.08454160392284393,
                0.7767156362533569
            ],
            "scale" : [
                1,
                1,
                0.9999999403953552
            ],
            "translation" : [
                -8.153928376941622e-08,
                0.28410395979881287,
                7.2798860273337596e-09
            ]
        },
        {
            "children" : [
                8
            ],
            "name" : "Thigh_L",
            "rotation" : [
                -0.6054378151893616,
                -0.6259732246398926,
                0.4398858845233917,
                0.21932385861873627
            ],
            "scale" : [
                1,
                1,
                1.0000001192092896
            ],
            "translation" : [
                5.086783883001544e-09,
                0.3879326283931732,
                1.8866819218033015e-08
            ]
        },
        {
            "children" : [
                9
            ],
            "name" : "Hip_L",
            "rotation" : [
                0.334837943315506,
                0.32565030455589294,
                -0.7378965020179749,
                0.48717984557151794
            ],
            "scale" : [
                1.0000001192092896,
                1.0000001192092896,
                1
            ],
            "translation" : [
                2.2432087298795977e-09,
                0.6642354130744934,
                4.644094442340929e-09
            ]
        },
        {
            "children" : [
                4,
                7,
                10
            ],
            "name" : "Spine2",
            "rotation" : [
                -0.9999097585678101,
                4.815093745946797e-08,
                -8.12261049532026e-08,
                0.01343517191708088
            ],
            "scale" : [
                1,
                1.0000001192092896,
                1.0000001192092896
            ],
            "translation" : [
                3.1885640794371284e-08,
                0.46116912364959717,
                0.017846599221229553
            ]
        },
        {
            "name" : "Face",
            "rotation" : [
                0.00465939799323678,
                -9.382812038438715e-08,
                -1.3488672401251733e-09,
                0.9999891519546509
            ],
            "scale" : [
                1,
                0.9999999403953552,
                1.0000001192092896
            ],
            "translation" : [
                1.1272157930371576e-13,
                0.2307574450969696,
                3.475576093592281e-08
            ]
        },
        {
            "children" : [
                12
            ],
            "name" : "Neck1",
            "rotation" : [
                -0.005964330863207579,
                1.3975699486579174e-09,
                1.4927237224071632e-09,
                0.9999822974205017
            ],
            "scale" : [
                1,
                0.9999999403953552,
                0.9999999403953552
            ],
            "translation" : [
                -4.529709940470639e-14,
                0.23075677454471588,
                7.450595695956963e-09
            ]
        },
        {
            "children" : [
                13
            ],
            "name" : "Neck2",
            "rotation" : [
                0.002728560473769903,
                2.000266841051257e-09,
                -9.433900327593392e-10,
                0.9999963641166687
            ],
            "translation" : [
                3.552716219899343e-15,
                0.46151453256607056,
                -1.4901146982992941e-08
            ]
        },
        {
            "children" : [
                14
            ],
            "name" : "Neck3",
            "rotation" : [
                0.023577813059091568,
                1.8675894164488227e-09,
                -6.568042465460167e-08,
                0.9997220039367676
            ],
            "scale" : [
                1,
                1,
                0.9999999403953552
            ],
            "translation" : [
                -1.3322675448468931e-14,
                0.4615144431591034,
                -9.313216864370588e-09
            ]
        },
        {
            "name" : "Hand_L",
            "rotation" : [
                0.2841769754886627,
                0.8713629841804504,
                -0.3997660279273987,
                0.012544307857751846
            ],
            "scale" : [
                1,
                0.9999997615814209,
                0.9999997019767761
            ],
            "translation" : [
                -1.6092197796524488e-08,
                0.19917966425418854,
                -1.504642312966098e-07
            ]
        },
        {
            "children" : [
                16
            ],
            "name" : "Arm_L",
            "rotation" : [
                0.25182044506073,
                -0.05785331875085831,
                -0.5058175325393677,
                0.8230358958244324
            ],
            "scale" : [
                0.9999998807907104,
                1,
                1
            ],
            "translation" : [
                1.585912556834046e-08,
                0.26507577300071716,
                -9.178544502219665e-08
            ]
        },
        {
            "children" : [
                17
            ],
            "name" : "Shoulder_L",
            "rotation" : [
                -0.5522469282150269,
                -0.4626394212245941,
                -0.5347568392753601,
                0.44161444902420044
            ],
            "scale" : [
                1,
                1.0000001192092896,
                1.0000001192092896
            ],
            "translation" : [
                1.4652232316336722e-08,
                0.46151432394981384,
                1.9647528048949425e-09
            ]
        },
        {
            "name" : "Hand_R",
            "rotation" : [
                0.2841769754886627,
                -0.8713629841804504,
                0.3997660279273987,
                0.012544294819235802
            ],
            "scale" : [
                1.0000001192092896,
                0.9999998211860657,
                0.9999999403953552
            ],
            "translation" : [
                -1.0078320400452867e-08,
                0.19917970895767212,
                -1.4928883018683337e-08
            ]
        },
        {
            "children" : [
                19
            ],
            "name" : "Arm_R",
            "rotation" : [
                0.25182044506073,
                0.057853344827890396,
                0.5058175921440125,
                0.8230360150337219
            ],
            "scale" : [
                0.9999998211860657,
                0.9999998807907104,
                0.9999998807907104
            ],
            "translation" : [
                -5.08704651736025e-08,
                0.2650759518146515,
                -7.355882303272665e-08
            ]
        },
        {
            "children" : [
                20
            ],
            "name" : "Shoulder_R",
            "rotation" : [
                -0.5522468686103821,
                0.46263936161994934,
                0.5347567796707153,
                0.4416145086288452
            ],
            "scale" : [
                1,
                1.0000001192092896,
                1
            ],
            "translation" : [
                -5.993469185983395e-15,
                0.46151432394981384,
                5.5823718980718695e-09
            ]
        },
        {
            "children" : [
                15,
                18,
                21
            ],
            "name" : "Spine1",
            "rotation" : [
                0.019338488578796387,
                6.480719605406193e-08,
                -3.329754960645914e-08,
                0.9998130202293396
            ],
            "translation" : [
                3.188564434708496e-08,
                0.46116915345191956,
                0.017846599221229553
            ]
        },
        {
            "name" : "TailControl",
            "rotation" : [
                -0.5911874175071716,
                -1.2171847174613504e-07,
                6.104382777039064e-08,
                0.8065342307090759
            ],
            "translation" : [
                -5.18650494996109e-07,
                -3.434866189956665,
                0.3953697085380554
            ]
        },
        {
            "name" : "HeadControl",
            "rotation" : [
                -0.7071066498756409,
                0,
                0,
                0.70710688829422
            ],
            "translation" : [
                3.4045584129671624e-07,
                2.25473690032959,
                0.151138573884964
            ]
        },
        {
            "children" : [
                0,
                11,
                22,
                23,
                24
            ],
            "name" : "Armature",
            "rotation" : [
                0,
                0.7071068286895752,
                -0.7071067690849304,
                5.338507946817117e-08
            ],
            "translation" : [
                0,
                0.41002678871154785,
                0.32221075892448425
            ]
        }
    ],
    "materials" : [
        {
            "doubleSided" : true,
            "name" : "Material",
            "pbrMetallicRoughness" : {
                "baseColorFactor" : [
                    0.00442730775102973,
                    0.006683868356049061,
                    0.012216898612678051,
                    1
                ],
                "metallicFactor" : 0,
                "roughnessFactor" : 0.5
            }
        },
        {
            "doubleSided" : true,
            "name" : "Material.001",
            "pbrMetallicRoughness" : {
                "baseColorFactor" : [
                    0.8000000715255737,
                    0.6487579345703125,
                    0.20206540822982788,
                    1
                ],
                "metallicFactor" : 0,
                "roughnessFactor" : 0.5
            }
        }
    ],
    "meshes" : [
        {
            "name" : "Cube",
            "primitives" : [
                {
                    "attributes" : {
                        "POSITION" : 0,
                        "NORMAL" : 1,
                        "COLOR_0" : 2
                    },
                    "indices" : 3,
                    "material" : 0
                },
                {
                    "attributes" : {
                        "POSITION" : 4,
                        "NORMAL" : 5,
                        "COLOR_0" : 6
                    },
                    "indices" : 7,
                    "material" : 1
                }
            ]
        }
    ],
    "accessors" : [
        {
            "bufferView" : 0,
            "componentType" : 5126,
            "count" : 5489,
            "max" : [
                0.48137742280960083,
                0.7750857472419739,
                3.1577112674713135
            ],
            "min" : [
                -0.48137739300727844,
                0.11240217834711075,
                -1.894882082939148
            ],
            "type" : "VEC3"
        },
        {
            "bufferView" : 1,
            "componentType" : 5126,
            "count" : 5489,
            "type" : "VEC3"
        },
        {
            "bufferView" : 2,
            "componentType" : 5123,
            "count" : 5489,
            "normalized" : true,
            "type" : "VEC4"
        },
        {
            "bufferView" : 3,
            "componentType" : 5123,
            "count" : 31584,
            "type" : "SCALAR"
        },
        {
            "bufferView" : 4,
            "componentType" : 5126,
            "count" : 1769,
            "max" : [
                0.3735901713371277,
                0.4916413128376007,
                3.1577112674713135
            ],
            "min" : [
                -0.4027826488018036,
                0.187279611825943,
                -1.833691120147705
            ],
            "type" : "VEC3"
        },
        {
            "bufferView" : 5,
            "componentType" : 5126,
            "count" : 1769,
            "type" : "VEC3"
        },
        {
            "bufferView" : 6,
            "componentType" : 5123,
            "count" : 1769,
            "normalized" : true,
            "type" : "VEC4"
        },
        {
            "bufferView" : 7,
            "componentType" : 5123,
            "count" : 9264,
            "type" : "SCALAR"
        }
    ],
    "bufferViews" : [
        {
            "buffer" : 0,
            "byteLength" : 65868,
            "byteOffset" : 0
        },
        {
            "buffer" : 0,
            "byteLength" : 65868,
            "byteOffset" : 65868
        },
        {
            "buffer" : 0,
            "byteLength" : 43912,
            "byteOffset" : 131736
        },
        {
            "buffer" : 0,
            "byteLength" : 63168,
            "byteOffset" : 175648
        },
        {
            "buffer" : 0,
            "byteLength" : 21228,
            "byteOffset" : 238816
        },
        {
            "buffer" : 0,
            "byteLength" : 21228,
            "byteOffset" : 260044
        },
        {
            "buffer" : 0,
            "byteLength" : 14152,
            "byteOffset" : 281272
        },
        {
            "buffer" : 0,
            "byteLength" : 18528,
            "byteOffset" : 295424
        }
    ],
    "buffers" : [
        {
            "byteLength" : 313952,
            "uri" : "data:application/octet-stream;base64,"
        }
    ]
}
