{
    "asset" : {
        "generator" : "Khronos glTF Blender I/O v1.7.33",
        "version" : "2.0"
    },
    "scene" : 0,
    "scenes" : [
        {
            "name" : "Scene",
            "nodes" : [
                0,
                1,
                2,
                3,
                4
            ]
        }
    ],
    "nodes" : [
        {
            "mesh" : 0,
            "name" : "Cube"
        },
        {
            "mesh" : 1,
            "name" : "Cube.001"
        },
        {
            "mesh" : 2,
            "name" : "Cube.002"
        },
        {
            "mesh" : 3,
            "name" : "Cube.003"
        },
        {
            "mesh" : 4,
            "name" : "Sphere"
        }
    ],
    "materials" : [
        {
            "doubleSided" : true,
            "name" : "body",
            "pbrMetallicRoughness" : {
                "baseColorFactor" : [
                    0,
                    0,
                    0,
                    1
                ],
                "metallicFactor" : 0,
                "roughnessFactor" : 0.33818182349205017
            }
        },
        {
            "doubleSided" : true,
            "name" : "stinger",
            "pbrMetallicRoughness" : {
                "baseColorFactor" : [
                    0.017949553206562996,
                    0,
                    0.0008954991353675723,
                    1
                ],
                "metallicFactor" : 0,
                "roughnessFactor" : 0.24909090995788574
            }
        },
        {
            "doubleSided" : true,
            "name" : "eyes",
            "pbrMetallicRoughness" : {
                "baseColorFactor" : [
                    0,
                    0,
                    0,
                    1
                ],
                "metallicFactor" : 0,
                "roughnessFactor" : 0
            }
        }
    ],
    "meshes" : [
        {
            "name" : "Cube",
            "primitives" : [
                {
                    "attributes" : {
                        "POSITION" : 0,
                        "NORMAL" : 1,
                        "TEXCOORD_0" : 2
                    },
                    "indices" : 3,
                    "material" : 0
                }
            ]
        },
        {
            "name" : "Cube.001",
            "primitives" : [
                {
                    "attributes" : {
                        "POSITION" : 4,
                        "NORMAL" : 5,
                        "TEXCOORD_0" : 6
                    },
                    "indices" : 7,
                    "material" : 1
                }
            ]
        },
        {
            "name" : "Cube.002",
            "primitives" : [
                {
                    "attributes" : {
                        "POSITION" : 8,
                        "NORMAL" : 9,
                        "TEXCOORD_0" : 10
                    },
                    "indices" : 11,
                    "material" : 0
                }
            ]
        },
        {
            "name" : "Cube.003",
            "primitives" : [
                {
                    "attributes" : {
                        "POSITION" : 12,
                        "NORMAL" : 13,
                        "TEXCOORD_0" : 14
                    },
                    "indices" : 15,
                    "material" : 0
                }
            ]
        },
        {
            "name" : "Sphere",
            "primitives" : [
                {
                    "attributes" : {
                        "POSITION" : 16,
                        "NORMAL" : 17,
                        "TEXCOORD_0" : 18
                    },
                    "indices" : 19,
                    "material" : 2
                }
            ]
        }
    ],
    "accessors" : [
        {
            "bufferView" : 0,
            "componentType" : 5126,
            "count" : 8186,
            "max" : [
                0.9771239161491394,
                2.463927984237671,
                0.7361582517623901
            ],
            "min" : [
                -0.9795029163360596,
                -0.9811886548995972,
                -4.083805561065674
            ],
            "type" : "VEC3"
        },
        {
            "bufferView" : 1,
            "componentType" : 5126,
            "count" : 8186,
            "type" : "VEC3"
        },
        {
            "bufferView" : 2,
            "componentType" : 5126,
            "count" : 8186,
            "type" : "VEC2"
        },
        {
            "bufferView" : 3,
            "componentType" : 5123,
            "count" : 46080,
            "type" : "SCALAR"
        },
        {
            "bufferView" : 4,
            "componentType" : 5126,
            "count" : 4930,
            "max" : [
                0.09657468646764755,
                1.9448055028915405,
                -0.7429308891296387
            ],
            "min" : [
                -0.4968065321445465,
                1.2585636377334595,
                -1.980558156967163
            ],
            "type" : "VEC3"
        },
        {
            "bufferView" : 5,
            "componentType" : 5126,
            "count" : 4930,
            "type" : "VEC3"
        },
        {
            "bufferView" : 6,
            "componentType" : 5126,
            "count" : 4930,
            "type" : "VEC2"
        },
        {
            "bufferView" : 7,
            "componentType" : 5123,
            "count" : 27648,
            "type" : "SCALAR"
        },
        {
            "bufferView" : 8,
            "componentType" : 5126,
            "count" : 26828,
            "max" : [
                3.342987060546875,
                1.2696644067764282,
                2.1962270736694336
            ],
            "min" : [
                -3.342987298965454,
                -0.7172558307647705,
                -1.222322702407837
            ],
            "type" : "VEC3"
        },
        {
            "bufferView" : 9,
            "componentType" : 5126,
            "count" : 26828,
            "type" : "VEC3"
        },
        {
            "bufferView" : 10,
            "componentType" : 5126,
            "count" : 26828,
            "type" : "VEC2"
        },
        {
            "bufferView" : 11,
            "componentType" : 5123,
            "count" : 153600,
            "type" : "SCALAR"
        },
        {
            "bufferView" : 12,
            "componentType" : 5126,
            "count" : 20964,
            "max" : [
                2.932490825653076,
                0.5260763764381409,
                -1.1920868158340454
            ],
            "min" : [
                -2.932490587234497,
                -0.43970656394958496,
                -4.073897361755371
            ],
            "type" : "VEC3"
        },
        {
            "bufferView" : 13,
            "componentType" : 5126,
            "count" : 20964,
            "type" : "VEC3"
        },
        {
            "bufferView" : 14,
            "componentType" : 5126,
            "count" : 20964,
            "type" : "VEC2"
        },
        {
            "bufferView" : 15,
            "componentType" : 5123,
            "count" : 116736,
            "type" : "SCALAR"
        },
        {
            "bufferView" : 16,
            "componentType" : 5126,
            "count" : 4472,
            "max" : [
                0.436353862285614,
                0.9592399597167969,
                0.5287006497383118
            ],
            "min" : [
                -0.436353862285614,
                0.4564964771270752,
                -0.12259989976882935
            ],
            "type" : "VEC3"
        },
        {
            "bufferView" : 17,
            "componentType" : 5126,
            "count" : 4472,
            "type" : "VEC3"
        },
        {
            "bufferView" : 18,
            "componentType" : 5126,
            "count" : 4472,
            "type" : "VEC2"
        },
        {
            "bufferView" : 19,
            "componentType" : 5123,
            "count" : 23040,
            "type" : "SCALAR"
        }
    ],
    "bufferViews" : [
        {
            "buffer" : 0,
            "byteLength" : 98232,
            "byteOffset" : 0
        },
        {
            "buffer" : 0,
            "byteLength" : 98232,
            "byteOffset" : 98232
        },
        {
            "buffer" : 0,
            "byteLength" : 65488,
            "byteOffset" : 196464
        },
        {
            "buffer" : 0,
            "byteLength" : 92160,
            "byteOffset" : 261952
        },
        {
            "buffer" : 0,
            "byteLength" : 59160,
            "byteOffset" : 354112
        },
        {
            "buffer" : 0,
            "byteLength" : 59160,
            "byteOffset" : 413272
        },
        {
            "buffer" : 0,
            "byteLength" : 39440,
            "byteOffset" : 472432
        },
        {
            "buffer" : 0,
            "byteLength" : 55296,
            "byteOffset" : 511872
        },
        {
            "buffer" : 0,
            "byteLength" : 321936,
            "byteOffset" : 567168
        },
        {
            "buffer" : 0,
            "byteLength" : 321936,
            "byteOffset" : 889104
        },
        {
            "buffer" : 0,
            "byteLength" : 214624,
            "byteOffset" : 1211040
        },
        {
            "buffer" : 0,
            "byteLength" : 307200,
            "byteOffset" : 1425664
        },
        {
            "buffer" : 0,
            "byteLength" : 251568,
            "byteOffset" : 1732864
        },
        {
            "buffer" : 0,
            "byteLength" : 251568,
            "byteOffset" : 1984432
        },
        {
            "buffer" : 0,
            "byteLength" : 167712,
            "byteOffset" : 2236000
        },
        {
            "buffer" : 0,
            "byteLength" : 233472,
            "byteOffset" : 2403712
        },
        {
            "buffer" : 0,
            "byteLength" : 53664,
            "byteOffset" : 2637184
        },
        {
            "buffer" : 0,
            "byteLength" : 53664,
            "byteOffset" : 2690848
        },
        {
            "buffer" : 0,
            "byteLength" : 35776,
            "byteOffset" : 2744512
        },
        {
            "buffer" : 0,
            "byteLength" : 46080,
            "byteOffset" : 2780288
        }
    ],
    "buffers" : [
        {
            "byteLength" : 2826368,
            "uri" : "data:application/octet-stream;base64,"
        }
    ]
}
